<svg height="1502" width="720" xmlns="http://www.w3.org/2000/svg">
<rect height="1502" fill="#555" width="720"></rect>
<text fill="#7f7" font-family="Courier New" font-size="12" xml:space="preserve">
<tspan x="10" y="26">18 megabytes installed</tspan>
<tspan x="10" y="42"></tspan>
<tspan x="10" y="58">node_modules</tspan>
<tspan x="10" y="74">└─┬ highlights@3.0.1 </tspan>
<tspan x="10" y="90">  ├─┬ first-mate@7.0.4 </tspan>
<tspan x="10" y="106">  │ ├─┬ emissary@1.3.3 </tspan>
<tspan x="10" y="122">  │ │ ├─┬ es6-weak-map@0.1.4 </tspan>
<tspan x="10" y="138">  │ │ │ ├── d@0.1.1 </tspan>
<tspan x="10" y="154">  │ │ │ ├─┬ es5-ext@0.10.15 </tspan>
<tspan x="10" y="170">  │ │ │ │ ├─┬ es6-iterator@2.0.1 </tspan>
<tspan x="10" y="186">  │ │ │ │ │ └── d@1.0.0 </tspan>
<tspan x="10" y="202">  │ │ │ │ └── es6-symbol@3.1.1 </tspan>
<tspan x="10" y="218">  │ │ │ ├── es6-iterator@0.1.3 </tspan>
<tspan x="10" y="234">  │ │ │ └── es6-symbol@2.0.1 </tspan>
<tspan x="10" y="250">  │ │ ├── mixto@1.0.0 </tspan>
<tspan x="10" y="266">  │ │ └── property-accessors@1.1.3 </tspan>
<tspan x="10" y="282">  │ ├── event-kit@2.3.0 </tspan>
<tspan x="10" y="298">  │ ├── grim@2.0.1 </tspan>
<tspan x="10" y="314">  │ └─┬ oniguruma@6.2.1 </tspan>
<tspan x="10" y="330">  │   └── nan@2.6.2 </tspan>
<tspan x="10" y="346">  ├─┬ first-mate-select-grammar@1.0.1 </tspan>
<tspan x="10" y="362">  │ └── lodash@3.10.1 </tspan>
<tspan x="10" y="378">  ├─┬ fs-plus@3.0.0 </tspan>
<tspan x="10" y="394">  │ ├── async@1.5.2 </tspan>
<tspan x="10" y="410">  │ ├─┬ mkdirp@0.5.1 </tspan>
<tspan x="10" y="426">  │ │ └── minimist@0.0.8 </tspan>
<tspan x="10" y="442">  │ └─┬ rimraf@2.6.1 </tspan>
<tspan x="10" y="458">  │   └─┬ glob@7.1.1 </tspan>
<tspan x="10" y="474">  │     ├── fs.realpath@1.0.0 </tspan>
<tspan x="10" y="490">  │     ├── inflight@1.0.6 </tspan>
<tspan x="10" y="506">  │     ├── inherits@2.0.3 </tspan>
<tspan x="10" y="522">  │     ├─┬ minimatch@3.0.3 </tspan>
<tspan x="10" y="538">  │     │ └─┬ brace-expansion@1.1.7 </tspan>
<tspan x="10" y="554">  │     │   ├── balanced-match@0.4.2 </tspan>
<tspan x="10" y="570">  │     │   └── concat-map@0.0.1 </tspan>
<tspan x="10" y="586">  │     └── path-is-absolute@1.0.1 </tspan>
<tspan x="10" y="602">  ├─┬ once@1.4.0 </tspan>
<tspan x="10" y="618">  │ └── wrappy@1.0.2 </tspan>
<tspan x="10" y="634">  ├─┬ season@6.0.0 </tspan>
<tspan x="10" y="650">  │ ├─┬ cson-parser@1.0.9 </tspan>
<tspan x="10" y="666">  │ │ └── coffee-script@1.9.0 </tspan>
<tspan x="10" y="682">  │ └─┬ optimist@0.4.0 </tspan>
<tspan x="10" y="698">  │   └── wordwrap@0.0.3 </tspan>
<tspan x="10" y="714">  ├─┬ underscore-plus@1.6.6 </tspan>
<tspan x="10" y="730">  │ └── underscore@1.6.0 </tspan>
<tspan x="10" y="746">  └─┬ yargs@4.8.1 </tspan>
<tspan x="10" y="762">    ├─┬ cliui@3.2.0 </tspan>
<tspan x="10" y="778">    │ ├─┬ strip-ansi@3.0.1 </tspan>
<tspan x="10" y="794">    │ │ └── ansi-regex@2.1.1 </tspan>
<tspan x="10" y="810">    │ └── wrap-ansi@2.1.0 </tspan>
<tspan x="10" y="826">    ├── decamelize@1.2.0 </tspan>
<tspan x="10" y="842">    ├── get-caller-file@1.0.2 </tspan>
<tspan x="10" y="858">    ├── lodash.assign@4.2.0 </tspan>
<tspan x="10" y="874">    ├─┬ os-locale@1.4.0 </tspan>
<tspan x="10" y="890">    │ └─┬ lcid@1.0.0 </tspan>
<tspan x="10" y="906">    │   └── invert-kv@1.0.0 </tspan>
<tspan x="10" y="922">    ├─┬ read-pkg-up@1.0.1 </tspan>
<tspan x="10" y="938">    │ ├─┬ find-up@1.1.2 </tspan>
<tspan x="10" y="954">    │ │ ├── path-exists@2.1.0 </tspan>
<tspan x="10" y="970">    │ │ └─┬ pinkie-promise@2.0.1 </tspan>
<tspan x="10" y="986">    │ │   └── pinkie@2.0.4 </tspan>
<tspan x="10" y="1002">    │ └─┬ read-pkg@1.1.0 </tspan>
<tspan x="10" y="1018">    │   ├─┬ load-json-file@1.1.0 </tspan>
<tspan x="10" y="1034">    │   │ ├── graceful-fs@4.1.11 </tspan>
<tspan x="10" y="1050">    │   │ ├─┬ parse-json@2.2.0 </tspan>
<tspan x="10" y="1066">    │   │ │ └─┬ error-ex@1.3.1 </tspan>
<tspan x="10" y="1082">    │   │ │   └── is-arrayish@0.2.1 </tspan>
<tspan x="10" y="1098">    │   │ ├── pify@2.3.0 </tspan>
<tspan x="10" y="1114">    │   │ └─┬ strip-bom@2.0.0 </tspan>
<tspan x="10" y="1130">    │   │   └── is-utf8@0.2.1 </tspan>
<tspan x="10" y="1146">    │   ├─┬ normalize-package-data@2.3.8 </tspan>
<tspan x="10" y="1162">    │   │ ├── hosted-git-info@2.4.2 </tspan>
<tspan x="10" y="1178">    │   │ ├─┬ is-builtin-module@1.0.0 </tspan>
<tspan x="10" y="1194">    │   │ │ └── builtin-modules@1.1.1 </tspan>
<tspan x="10" y="1210">    │   │ ├── semver@5.3.0 </tspan>
<tspan x="10" y="1226">    │   │ └─┬ validate-npm-package-license@3.0.1 </tspan>
<tspan x="10" y="1242">    │   │   ├─┬ spdx-correct@1.0.2 </tspan>
<tspan x="10" y="1258">    │   │   │ └── spdx-license-ids@1.2.2 </tspan>
<tspan x="10" y="1274">    │   │   └── spdx-expression-parse@1.0.4 </tspan>
<tspan x="10" y="1290">    │   └── path-type@1.1.0 </tspan>
<tspan x="10" y="1306">    ├── require-directory@2.1.1 </tspan>
<tspan x="10" y="1322">    ├── require-main-filename@1.0.1 </tspan>
<tspan x="10" y="1338">    ├── set-blocking@2.0.0 </tspan>
<tspan x="10" y="1354">    ├─┬ string-width@1.0.2 </tspan>
<tspan x="10" y="1370">    │ ├── code-point-at@1.1.0 </tspan>
<tspan x="10" y="1386">    │ └─┬ is-fullwidth-code-point@1.0.0 </tspan>
<tspan x="10" y="1402">    │   └── number-is-nan@1.0.1 </tspan>
<tspan x="10" y="1418">    ├── which-module@1.0.0 </tspan>
<tspan x="10" y="1434">    ├── window-size@0.2.0 </tspan>
<tspan x="10" y="1450">    ├── y18n@3.2.1 </tspan>
<tspan x="10" y="1466">    └─┬ yargs-parser@2.4.1 </tspan>
<tspan x="10" y="1482">      └── camelcase@3.0.0</tspan>
</text>
</svg>
